<svg xmlns="http://www.w3.org/2000/svg" aria-hidden="true"
  style="position:absolute;width:0;height:0;overflow:hidden">
  <defs>
    <symbol id="icon-youtube" viewBox="0 0 24 24">
      <path
        d="M23 9.71a8.5 8.5 0 0 0-.91-4.13 2.92 2.92 0 0 0-1.72-1A78 78 0 0 0 12 4.27a79 79 0 0 0-8.34.3 2.87 2.87 0 0 0-1.46.74c-.9.83-1 2.25-1.1 3.45a48 48 0 0 0 0 6.48 9.6 9.6 0 0 0 .3 2 3.14 3.14 0 0 0 .71 1.36 2.86 2.86 0 0 0 1.49.78 45 45 0 0 0 6.5.33c3.5.05 6.57 0 10.2-.28a2.9 2.9 0 0 0 1.53-.78 2.5 2.5 0 0 0 .61-1 10.6 10.6 0 0 0 .52-3.4c.04-.56.04-3.94.04-4.54M9.74 14.85V8.66l5.92 3.11c-1.66.92-3.85 1.96-5.92 3.08" />
    </symbol>
    <symbol id="icon-facebook" viewBox="0 0 32 32">
      <path
        d="M21.329 5.313h2.921V.225C23.746.156 22.013 0 19.994 0c-4.212 0-7.097 2.649-7.097 7.519V12H8.249v5.688h4.648V32h5.699V17.689h4.46l.708-5.688h-5.169V8.082c.001-1.644.444-2.769 2.735-2.769z" />
    </symbol>
    <symbol id="icon-instagram" viewBox="0 0 32 32">
      <path
        d="M31.969 9.408c-.075-1.7-.35-2.869-.744-3.882-.406-1.075-1.031-2.038-1.85-2.838A7.8671 7.8671 0 0 0 26.543.844C25.524.45 24.361.175 22.661.1 20.948.019 20.404 0 16.06 0s-4.888.019-6.595.094c-1.7.075-2.869.35-3.882.744-1.075.406-2.038 1.031-2.838 1.85-.813.8-1.444 1.769-1.844 2.832C.507 6.539.232 7.702.157 9.402c-.081 1.713-.1 2.257-.1 6.601s.019 4.888.094 6.595c.075 1.7.35 2.869.744 3.882.406 1.075 1.038 2.038 1.85 2.838.8.813 1.769 1.444 2.832 1.844 1.019.394 2.182.669 3.882.744 1.706.075 2.25.094 6.595.094s4.888-.019 6.595-.094c1.7-.075 2.869-.35 3.882-.744a8.1843 8.1843 0 0 0 4.682-4.682c.394-1.019.669-2.182.744-3.882.075-1.707.094-2.25.094-6.595s-.006-4.888-.081-6.595zm-2.882 13.065c-.069 1.563-.331 2.407-.55 2.969-.538 1.394-1.644 2.501-3.038 3.038-.563.219-1.413.481-2.969.55-1.688.075-2.194.094-6.464.094s-4.782-.019-6.464-.094c-1.563-.069-2.407-.331-2.969-.55-.694-.256-1.325-.663-1.838-1.194-.531-.519-.938-1.144-1.194-1.838-.219-.563-.481-1.413-.55-2.969-.075-1.688-.094-2.194-.094-6.464s.019-4.782.094-6.464c.069-1.563.331-2.407.55-2.969.256-.694.663-1.325 1.2-1.838.519-.531 1.144-.938 1.838-1.194.563-.219 1.413-.481 2.969-.55 1.688-.075 2.194-.094 6.464-.094 4.276 0 4.782.019 6.464.094 1.563.069 2.407.331 2.969.55.694.256 1.325.662 1.838 1.194.531.519.938 1.144 1.194 1.838.219.563.481 1.413.55 2.969.075 1.688.094 2.194.094 6.464s-.019 4.77-.094 6.458z" />
      <path
        d="M16.059 7.783c-4.538 0-8.22 3.682-8.22 8.22s3.682 8.22 8.22 8.22c4.539 0 8.22-3.682 8.22-8.22s-3.682-8.22-8.22-8.22zm0 13.552c-2.944 0-5.332-2.388-5.332-5.332s2.388-5.332 5.332-5.332 5.332 2.388 5.332 5.332-2.388 5.332-5.332 5.332zM26.524 7.458c0 1.06-.859 1.919-1.919 1.919s-1.919-.859-1.919-1.919.859-1.919 1.919-1.919 1.919.859 1.919 1.919z" />
    </symbol>
    <symbol id="icon-telegram" viewBox="0 0 32 32">
      <path
        d="M32 2.667l-32 15 10.227 3.156 15.773-12.323-11.998 13.488 0.010 0.003-0.012-0.003v7.345l5.735-5.576 7.265 2.242 5-23.333z"></path>
    </symbol>
    <symbol id="icon-threads" viewBox="0 0 256 256">
      <path
        d="M186.42 123.65a64 64 0 0 0-11.13-6.72c-4-29.89-24-39.31-33.1-42.07c-19.78-6-42.51 1.19-52.85 16.7a8 8 0 0 0 13.32 8.88c6.37-9.56 22-14.16 34.89-10.27c9.95 3 16.82 10.3 20.15 21a81 81 0 0 0-15.29-1.43c-13.92 0-26.95 3.59-36.67 10.1C94.3 127.57 88 139 88 152c0 20.58 15.86 35.52 37.71 35.52a48 48 0 0 0 34.35-14.81c6.44-6.7 14-18.36 15.61-37.1c.38.26.74.53 1.1.8C186.88 144.05 192 154.68 192 168c0 19.36-20.34 48-64 48c-26.73 0-45.48-8.65-57.34-26.44C60.93 175 56 154.26 56 128s4.93-47 14.66-61.56C82.52 48.65 101.27 40 128 40c32.93 0 54 13.25 64.53 40.52a8 8 0 1 0 14.93-5.75C194.68 41.56 167.2 24 128 24c-32 0-55.81 11.29-70.66 33.56C45.83 74.83 40 98.52 40 128s5.83 53.17 17.34 70.44C72.19 220.71 96 232 128 232c30.07 0 48.9-11.48 59.4-21.1C200.3 199.08 208 183 208 168c0-18.34-7.46-33.68-21.58-44.35m-37.89 38a31.94 31.94 0 0 1-22.82 9.9c-10.81 0-21.71-6-21.71-19.52c0-12.63 12-26.21 38.41-26.21a64 64 0 0 1 17.59 2.42c0 14.08-4 25.62-11.47 33.38Z" />
    </symbol>
    <symbol id="icon-tik-tok" viewBox="0 0 1024 1024">
      <path  fill-rule="evenodd" d="M530.014 112.667c43.666-.667 86.997-.334 130.328-.667c2.667 51 21 102.999 58.33 138.998c37.332 37 89.997 54 141.328 59.666v134.332c-47.998-1.667-96.33-11.667-139.994-32.333c-19-8.667-36.665-19.667-53.998-31c-.333 97.332.334 194.665-.666 291.663c-2.667 46.666-18 93-44.998 131.332c-43.665 64-119.328 105.665-196.992 106.999c-47.664 2.666-95.329-10.334-135.994-34.333c-67.33-39.666-114.662-112.332-121.661-190.331c-.667-16.667-1-33.333-.334-49.666c6-63.333 37.332-123.999 85.997-165.332c55.33-47.999 132.66-70.999 204.99-57.332c.667 49.333-1.332 98.665-1.332 147.998c-33-10.667-71.664-7.667-100.663 12.333c-20.999 13.667-36.998 34.666-45.331 58.333c-7 17-5 35.666-4.667 53.666c8 54.666 60.664 100.665 116.662 95.665c37.332-.333 72.997-22 92.33-53.666c6.332-11 13.332-22.333 13.665-35.333c3.334-59.666 2-118.998 2.334-178.664c.333-134.332-.334-268.33.666-402.328" />
    </symbol> 
    <symbol id="icon-paper" viewBox="0 0 24 24">
      <path stroke="none" stroke-linecap="round" stroke-linejoin="round" stroke-width="2" d="m9.474 16 9.181 3.284a1.1005 1.1005 0 0 0 1.292-.4321 1.0999 1.0999 0 0 0 .17-.4549L21.99 4.239c.114-.862-.779-1.505-1.567-1.13L2.624 11.605c-.88.42-.814 1.69.106 2.017l2.44.868 1.33.467M13 17.26l-1.99 3.326c-.65.808-1.959.351-1.959-.683V17.24a2 2 0 0 1 .53-1.356l3.871-4.2"/>
    </symbol>
  </defs>
</svg>
